<?xml version="1.0" encoding="UTF-8"?>
<svg version="1.1" xmlns="http://www.w3.org/2000/svg" width="512" height="512">
<path d="M0 0 C1.1395488 -0.00352835 1.1395488 -0.00352835 2.30211878 -0.00712797 C4.86244197 -0.01381544 7.42271438 -0.01335982 9.98304558 -0.01294994 C11.83140702 -0.01624872 13.67976775 -0.01997432 15.52812755 -0.02409142 C20.61909174 -0.03411789 25.71004414 -0.03782926 30.80101681 -0.04048073 C36.28722002 -0.04438184 41.77341388 -0.05396029 47.25961113 -0.0626936 C60.51431637 -0.0824631 73.76902238 -0.09252467 87.02373868 -0.10142139 C93.26362204 -0.10580335 99.50350454 -0.11117038 105.74338722 -0.11641026 C126.48256878 -0.13342275 147.22175004 -0.14794232 167.9609375 -0.155159 C169.30215098 -0.15563375 170.64336446 -0.15610964 171.98457795 -0.15658666 C172.64969656 -0.15682303 173.31481517 -0.15705941 174.00008888 -0.15730295 C177.3698859 -0.15850414 180.7396829 -0.15971959 184.1094799 -0.16094494 C184.77822514 -0.16118509 185.44697037 -0.16142524 186.13598061 -0.16167267 C207.81668926 -0.16956501 229.49734318 -0.19299559 251.17802794 -0.22550088 C274.10186401 -0.25980723 297.025678 -0.27950974 319.94954193 -0.28280324 C332.44490724 -0.28496953 344.94019212 -0.29373571 357.43553352 -0.31926441 C368.07598836 -0.3409531 378.71634324 -0.3490308 389.35681768 -0.33929763 C394.78587685 -0.33474771 400.2147297 -0.33667959 405.64376068 -0.35605907 C410.61571184 -0.37365371 415.58730559 -0.37272294 420.55926035 -0.35716178 C422.35608101 -0.35478011 424.15292617 -0.35913822 425.94970931 -0.37099043 C438.91489977 -0.45120273 448.77531981 0.66245278 458.54307365 9.91156483 C464.74714321 16.87431744 466.67680876 23.52018466 466.65776348 32.65753078 C466.66011571 33.4222951 466.66246794 34.18705942 466.66489145 34.97499841 C466.67157925 37.55255172 466.67112329 40.13005459 466.67071342 42.70761585 C466.67401218 44.56835169 466.67773778 46.42908682 466.6818549 48.28982103 C466.69188161 53.41498993 466.69559278 58.54014713 466.69824421 63.66532445 C466.70214526 69.18833779 466.71172371 74.71134184 466.72045708 80.23434925 C466.74022677 93.57804306 466.75028817 106.92173764 466.75918487 120.26544243 C466.76356679 126.5471661 466.76893384 132.82888892 466.77417374 139.11061192 C466.79118624 159.98876287 466.80570583 180.86691368 466.81292248 201.74507046 C466.81339723 203.0952767 466.81387312 204.44548294 466.81435014 205.79568919 C466.81458652 206.46526758 466.81482289 207.13484597 466.81506643 207.82471462 C466.81626762 211.2171087 466.81748308 214.60950278 466.81870842 218.00189686 C466.81894857 218.67512662 466.81918872 219.34835638 466.81943615 220.04198704 C466.82732854 241.86820094 466.85075919 263.69436049 466.88326436 285.52055066 C466.91757034 308.59807318 466.93727319 331.67557027 466.94056672 354.75312173 C466.94273304 367.33232384 466.95149971 379.91144607 466.97702789 392.49062443 C466.99871609 403.2024448 467.00679453 413.91416589 466.99706111 424.62600572 C466.99251105 430.09151917 466.9944439 435.55682767 467.01382256 441.02231312 C467.03141618 446.02757111 467.03048724 451.03247406 467.01492526 456.03773563 C467.01254343 457.84666923 467.01690249 459.65562717 467.02875391 461.46452351 C467.10864275 474.46526589 466.02261777 484.35716018 456.74619865 494.15375233 C449.80127185 500.34193842 443.16294414 502.287572 434.04708481 502.26844215 C432.90753601 502.2719705 432.90753601 502.2719705 431.74496603 502.27557012 C429.18464284 502.28225759 426.62437043 502.28180198 424.06403923 502.2813921 C422.21567779 502.28469088 420.36731706 502.28841647 418.51895726 502.29253358 C413.42799307 502.30256005 408.33704067 502.30627141 403.246068 502.30892289 C397.75986479 502.312824 392.27367093 502.32240245 386.78747368 502.33113575 C373.53276844 502.35090525 360.27806243 502.36096683 347.02334613 502.36986354 C340.78346277 502.3742455 334.54358027 502.37961253 328.30369759 502.38485241 C307.56451602 502.4018649 286.82533477 502.41638447 266.08614731 502.42360115 C264.74493383 502.42407591 263.40372034 502.4245518 262.06250686 502.42502881 C261.39738825 502.42526519 260.73226964 502.42550156 260.04699592 502.4257451 C256.67719891 502.4269463 253.30740191 502.42816175 249.9376049 502.42938709 C249.26885967 502.42962724 248.60011444 502.42986739 247.9111042 502.43011482 C226.23039555 502.43800717 204.54974162 502.46143774 182.86905687 502.49394304 C159.9452208 502.52824938 137.02140681 502.5479519 114.09754288 502.55124539 C101.60217757 502.55341168 89.10689268 502.56217787 76.61155128 502.58770657 C65.97109645 502.60939526 55.33074157 502.61747296 44.69026713 502.60773978 C39.26120796 502.60318986 33.83235511 502.60512175 28.40332413 502.62450123 C23.43137297 502.64209587 18.45977922 502.64116509 13.48782445 502.62560394 C11.6910038 502.62322226 9.89415864 502.62758037 8.0973755 502.63943259 C-4.86781496 502.71964489 -14.728235 501.60598937 -24.49598885 492.35687733 C-30.7000584 485.39412471 -32.62972395 478.7482575 -32.61067867 469.61091137 C-32.6130309 468.84614705 -32.61538313 468.08138273 -32.61780664 467.29344374 C-32.62449444 464.71589043 -32.62403849 462.13838756 -32.62362862 459.5608263 C-32.62692737 457.70009046 -32.63065297 455.83935534 -32.6347701 453.97862113 C-32.6447968 448.85345222 -32.64850797 443.72829503 -32.65115941 438.6031177 C-32.65506045 433.08010436 -32.6646389 427.55710032 -32.67337227 422.0340929 C-32.69314196 408.69039909 -32.70320337 395.34670452 -32.71210006 382.00299972 C-32.71648199 375.72127606 -32.72184903 369.43955324 -32.72708893 363.15783024 C-32.74410143 342.27967928 -32.75862102 321.40152847 -32.76583767 300.5233717 C-32.76631243 299.17316545 -32.76678831 297.82295921 -32.76726533 296.47275297 C-32.76750171 295.80317457 -32.76773808 295.13359618 -32.76798162 294.44372753 C-32.76918282 291.05133345 -32.77039827 287.65893937 -32.77162361 284.2665453 C-32.77186376 283.59331553 -32.77210391 282.92008577 -32.77235134 282.22645511 C-32.78024373 260.40024121 -32.80367439 238.57408166 -32.83617956 216.7478915 C-32.87048553 193.67036898 -32.89018838 170.59287189 -32.89348191 147.51532042 C-32.89564823 134.93611831 -32.9044149 122.35699609 -32.92994308 109.77781773 C-32.95163128 99.06599735 -32.95970972 88.35427627 -32.9499763 77.64243643 C-32.94542624 72.17692298 -32.94735909 66.71161448 -32.96673775 61.24612904 C-32.98433137 56.24087105 -32.98340244 51.23596809 -32.96784046 46.23070653 C-32.96545863 44.42177293 -32.96981768 42.61281499 -32.98166911 40.80391864 C-33.06155794 27.80317627 -31.97553296 17.91128198 -22.69911385 8.11468983 C-15.75418704 1.92650373 -9.11585933 -0.01912984 0 0 Z " fill="#000000" transform="translate(39.476457595825195,4.865778923034668)"/>
<path d="M0 0 C0.88269058 -0.0071553 1.76538116 -0.01431061 2.67481995 -0.02168274 C3.63583115 -0.02437164 4.59684235 -0.02706055 5.5869751 -0.02983093 C6.60549057 -0.03640213 7.62400604 -0.04297333 8.67338562 -0.04974365 C12.04855427 -0.06947026 15.42367824 -0.08114293 18.79888916 -0.09111023 C19.95573463 -0.09518576 21.11258011 -0.09926128 22.30448151 -0.10346031 C28.43721843 -0.12432642 34.56993301 -0.13862126 40.70269775 -0.147995 C47.00344564 -0.15901153 53.3038357 -0.19335492 59.60445786 -0.23316669 C64.47589724 -0.2594692 69.3472535 -0.26769928 74.21875763 -0.27127647 C76.53890629 -0.27611365 78.85905197 -0.28764446 81.17913055 -0.30631447 C105.05849726 -0.48640495 125.01578179 3.12464359 143.56451416 19.14717102 C144.52615479 19.97088196 145.48779541 20.7945929 146.47857666 21.64326477 C160.96562666 35.04888709 168.55526006 52.54370038 169.67828369 72.13154602 C170.61867701 96.54628582 163.33132496 116.49277619 146.81451416 134.45967102 C137.40611415 143.26472674 125.77695288 149.27731988 113.56451416 153.14717102 C112.80500458 153.40187668 112.045495 153.65658234 111.26296997 153.91900635 C101.35459385 156.83769908 91.58608658 156.52788913 81.36138916 156.44013977 C79.42798189 156.43453367 77.49457031 156.43026837 75.56115723 156.42727661 C70.51086335 156.4159076 65.46083473 156.38651017 60.41064453 156.35316467 C55.24191881 156.3222911 50.07314957 156.30873458 44.90435791 156.2936554 C34.79096111 156.26163174 24.67775983 156.21053326 14.56451416 156.14717102 C14.56820133 156.72401201 14.5718885 157.300853 14.57568741 157.89517403 C14.66409131 171.94219332 14.73024937 185.98917081 14.77176285 200.03640938 C14.792373 206.82961656 14.82046363 213.62263785 14.86627197 220.41572571 C14.910455 226.97092364 14.93364959 233.52600096 14.94402313 240.08134079 C14.9514162 242.58280859 14.96585298 245.08426577 14.98743439 247.5856514 C15.01645389 251.08832424 15.02047061 254.59019816 15.01861572 258.0929718 C15.03299683 259.1280336 15.04737793 260.1630954 15.06219482 261.22952271 C15.02790726 267.2097834 14.52913229 270.58394969 10.56451416 275.14717102 C6.1096959 279.16737286 2.77165935 280.53968682 -3.31048584 280.41670227 C-7.04724316 279.94273857 -9.59778648 278.58069487 -12.43548584 276.14717102 C-16.6716477 270.30441117 -17.00619983 264.5186519 -16.93669128 257.51348877 C-16.94222568 256.46620293 -16.94776008 255.41891708 -16.95346218 254.33989531 C-16.96703687 250.84303687 -16.95211611 247.34689607 -16.93719482 243.85005188 C-16.94097911 241.338091 -16.94648005 238.8261322 -16.9535675 236.31417847 C-16.96607575 230.20739683 -16.95996323 224.1008798 -16.94489192 217.99411147 C-16.92800127 210.87839243 -16.93124589 203.76272458 -16.934986 196.64699168 C-16.94085976 183.9490116 -16.92671151 171.2511308 -16.90203857 158.55317688 C-16.87811415 146.23901143 -16.8710369 133.92497858 -16.88153076 121.61079407 C-16.89294597 108.19146348 -16.89486299 94.77219417 -16.88043267 81.35286433 C-16.87890687 79.92137532 -16.87738651 78.48988631 -16.87587166 77.05839729 C-16.87511384 76.35412995 -16.87435603 75.64986261 -16.87357525 74.92425383 C-16.86883747 69.9671318 -16.87068023 65.01003718 -16.87493706 60.05291557 C-16.88038463 53.37898113 -16.86959918 46.70525721 -16.84798241 40.03134727 C-16.84241652 37.58158741 -16.84194741 35.1318099 -16.84693527 32.6820488 C-16.85288828 29.33911847 -16.84038188 25.99674939 -16.82316589 22.65386963 C-16.83218096 21.19851576 -16.83218096 21.19851576 -16.84137815 19.71376079 C-16.78867689 14.08921694 -16.13879123 10.11467704 -13.43548584 5.14717102 C-9.19723129 1.01758966 -5.77486703 0.0322773 0 0 Z " fill="#FCFCFC" transform="translate(101.43548583984375,115.85282897949219)"/>
<path d="M0 0 C0.92555191 -0.0066568 1.85110382 -0.0133136 2.80470276 -0.02017212 C4.75365219 -0.0302545 6.70263584 -0.03499051 8.65161133 -0.03466797 C11.61663108 -0.03904438 14.58016457 -0.07541968 17.54492188 -0.11328125 C19.44660954 -0.11914988 21.34830421 -0.12311896 23.25 -0.125 C24.12732285 -0.13937103 25.00464569 -0.15374207 25.90855408 -0.16854858 C31.82589779 -0.1250829 36.22709902 1.04418863 41.19140625 4.3359375 C44.57825803 7.83204257 45.0489625 10.85452249 45.50390625 15.5859375 C45.1258096 20.12309731 44.11246109 23.78528187 41.19140625 27.3359375 C35.62993151 31.18186762 31.64376575 31.89683188 24.96875 31.8046875 C24.10504288 31.81173706 23.24133575 31.81878662 22.35145569 31.8260498 C19.61029992 31.84797694 16.87012342 31.84510464 14.12890625 31.8359375 C10.51249549 31.82386692 6.89753409 31.83763873 3.28125 31.8671875 C2.45922592 31.85586792 1.63720184 31.84454834 0.79026794 31.83288574 C-4.54384609 31.87957474 -7.6488688 32.69764553 -11.80859375 36.3359375 C-16.78602498 41.69504805 -16.41011475 47.14491041 -16.41796875 54.078125 C-16.434505 55.20163361 -16.45104126 56.32514221 -16.46807861 57.48269653 C-16.5165279 61.05883265 -16.53792373 64.63454356 -16.55859375 68.2109375 C-16.58675584 70.64064636 -16.6166836 73.07033543 -16.6484375 75.5 C-16.72228621 81.44523539 -16.77394682 87.39035135 -16.80859375 93.3359375 C-16.19773422 93.32705505 -15.58687469 93.31817261 -14.95750427 93.309021 C-8.58203517 93.22031598 -2.20674228 93.1601072 4.16918945 93.11621094 C6.54654057 93.09613387 8.92384255 93.06886637 11.30102539 93.03417969 C14.7242447 92.98549136 18.14680931 92.96292897 21.5703125 92.9453125 C22.62787247 92.92466736 23.68543243 92.90402222 24.77503967 92.88275146 C31.16427999 92.8808221 34.99394938 93.53717798 40.19140625 97.3359375 C43.58269748 100.99496224 45.05486871 103.56094948 45.44140625 108.5859375 C45.0724436 114.12037726 43.73362348 117.90656544 39.62890625 121.7109375 C36.12499361 124.04687926 34.37044026 124.45955836 30.19091797 124.44946289 C28.62952591 124.44934959 28.62952591 124.44934959 27.03659058 124.44923401 C25.90947662 124.44407272 24.78236267 124.43891144 23.62109375 124.43359375 C22.46972931 124.4321788 21.31836487 124.43076385 20.1321106 124.42930603 C16.44351639 124.42369466 12.7549822 124.4111402 9.06640625 124.3984375 C6.57031337 124.39342397 4.07421955 124.38886081 1.578125 124.38476562 C-4.55080184 124.37372153 -10.67969351 124.3569723 -16.80859375 124.3359375 C-16.80490658 125.07769793 -16.80121941 125.81945835 -16.7974205 126.58369637 C-16.70906435 144.63642912 -16.64288166 162.68911868 -16.60134506 180.74202156 C-16.5807241 189.47229912 -16.55261247 198.2024323 -16.50683594 206.93261719 C-16.46695383 214.54228845 -16.44115754 222.15185516 -16.43223977 229.76162803 C-16.42702732 233.79059982 -16.41478611 237.81927247 -16.38567352 241.84814835 C-16.35848254 245.64190413 -16.35015607 249.43523813 -16.35616302 253.22908211 C-16.35506442 254.61983471 -16.34713207 256.0106017 -16.33177185 257.40126991 C-16.19502244 270.42311216 -16.19502244 270.42311216 -20.80859375 275.3359375 C-25.20274552 279.30139153 -28.60078201 280.7756198 -34.61328125 280.67578125 C-38.6271891 280.05441117 -41.96277291 278.20699843 -44.80859375 275.3359375 C-48.69297764 268.6487538 -48.21229341 261.86806335 -48.14916992 254.32250977 C-48.14832278 252.90277627 -48.14880049 251.48304145 -48.15049744 250.06330872 C-48.15135543 246.22488637 -48.1337617 242.38674734 -48.11277556 238.54839063 C-48.0939759 234.53121214 -48.09225574 230.5140266 -48.08869934 226.49681091 C-48.07938851 218.89671506 -48.05478783 211.29674922 -48.02465087 203.69671053 C-47.99107684 195.04135035 -47.97461331 186.38598385 -47.95956457 177.73057473 C-47.92823737 159.93228871 -47.87549567 142.13412357 -47.80859375 124.3359375 C-49.02675781 124.35914063 -50.24492187 124.38234375 -51.5 124.40625 C-53.12369174 124.425021 -54.74739017 124.44321977 -56.37109375 124.4609375 C-57.17095703 124.47769531 -57.97082031 124.49445313 -58.79492188 124.51171875 C-64.49986475 124.55828971 -70.19311755 124.47028892 -74.8046875 120.70703125 C-78.10030992 116.28607435 -79.62646562 113.01374696 -79.1953125 107.4375 C-78.02788239 101.09328383 -74.75130571 98.01668045 -69.80859375 94.3359375 C-67.40799558 93.13563842 -65.91498726 93.22134007 -63.23828125 93.23828125 C-62.34238281 93.24150391 -61.44648438 93.24472656 -60.5234375 93.24804688 C-59.11771484 93.26061523 -59.11771484 93.26061523 -57.68359375 93.2734375 C-56.73871094 93.27794922 -55.79382813 93.28246094 -54.8203125 93.28710938 C-52.48300988 93.29891393 -50.14583314 93.31537991 -47.80859375 93.3359375 C-47.8174762 92.67354065 -47.82635864 92.0111438 -47.83551025 91.32867432 C-47.92455231 84.38473205 -47.98456245 77.44095406 -48.02832031 70.49658203 C-48.04833681 67.91090295 -48.07555845 65.32526856 -48.11035156 62.73974609 C-48.15930834 59.00607214 -48.1816633 55.27300081 -48.19921875 51.5390625 C-48.21986389 50.39794006 -48.24050903 49.25681763 -48.26177979 48.08111572 C-48.26580224 33.4326671 -42.8445488 22.75950146 -33.12109375 12.0859375 C-23.9683365 3.28931866 -12.33116096 0.03121044 0 0 Z " fill="#FDFDFD" transform="translate(381.80859375,115.6640625)"/>
<path d="M0 0 C13.756875 -0.0825 27.51375 -0.165 41.6875 -0.25 C46.00674561 -0.28641602 50.32599121 -0.32283203 54.77612305 -0.36035156 C60.11291504 -0.37841797 60.11291504 -0.37841797 62.62336731 -0.3817749 C64.35033815 -0.38785597 66.07729366 -0.40179484 67.80415344 -0.42230225 C84.00856507 -0.60486233 97.18865737 1.1013404 109.6875 12.4375 C110.450625 13.283125 111.21375 14.12875 112 15 C112.48082031 15.47695312 112.96164063 15.95390625 113.45703125 16.4453125 C122.67090983 26.1023903 124.58666772 38.74517865 124.34375 51.5625 C123.73365424 63.39835771 117.21428976 74.2076451 108.8125 82.25 C95.55670701 93.41511423 80.26165222 93.29419485 63.8671875 93.1953125 C62.22924943 93.19236639 60.59130947 93.19032945 58.95336914 93.18920898 C52.9272171 93.1787875 46.90110555 93.15086508 40.875 93.125 C20.641875 93.063125 20.641875 93.063125 0 93 C0 62.31 0 31.62 0 0 Z " fill="#000000" transform="translate(116,147)"/>
</svg>
